# xmcd CD database file
#
# Track frame offsets:
#	150
#	1860
#	50763
#	59907
#	79448
#	109560
#	121703
#	143135
#	168205
#
# Disc length: 2593 seconds
#
# Revision: 0
# Processed by: cddbd v1.5.1PL0 Copyright (c) Steve Scherf et al.
# Submitted via: CDex 1.51
#
DISCID=740a1f09
DTITLE=SMRYTRPS - SMLIVE
DYEAR=2005
DGENRE=Hip-Hop
TTITLE0=イントロ
TTITLE1=メドレー
TTITLE2=メテオ・イントロダクション
TTITLE3=キープ！コンディション
TTITLE4=Bring it on - Bring it out
TTITLE5=メイテイオウ
TTITLE6=ラテンサムライ
TTITLE7=ドロボーMCeez
TTITLE8=ワッサップヨーエビバデ？
EXTD=YEAR: 2005
EXTT0=
EXTT1=
EXTT2=
EXTT3=
EXTT4=
EXTT5=
EXTT6=
EXTT7=
EXTT8=
PLAYORDER=
